<?xml version="1.0" standalone="no"?><!DOCTYPE svg PUBLIC "-//W3C//DTD SVG 1.1//EN" "http://www.w3.org/Graphics/SVG/1.1/DTD/svg11.dtd"><svg t="1710746414605" class="icon" viewBox="0 0 1024 1024" version="1.1" xmlns="http://www.w3.org/2000/svg" p-id="12296" width="25" height="25" xmlns:xlink="http://www.w3.org/1999/xlink"><path d="M511.911544 0a350.42548 350.42548 0 0 0-245.999857 597.522245l245.999857 247.535528 246.072985-247.535528A350.42548 350.42548 0 0 0 511.911544 0.073127z m0 505.528244a155.102764 155.102764 0 0 1-154.737127-155.4684 155.029637 155.029637 0 0 1 154.664-155.468399 155.102764 155.102764 0 0 1 154.737128 155.468399A155.029637 155.029637 0 0 1 512.057799 505.455117z m-154.737127 453.38856c0 35.905449 69.251446 65.010069 154.737127 65.010069s154.737128-29.250875 154.737128-65.010069-69.251446-65.010069-154.737128-65.01007-154.664001 28.958366-154.664 64.863815z" fill="#1296db" p-id="12297"></path></svg>