<svg height="1024" node-id="1" sillyvg="true" template-height="1024" template-width="1024" version="1.1" viewBox="0 0 1024 1024" width="1024" xmlns="http://www.w3.org/2000/svg" xmlns:xlink="http://www.w3.org/1999/xlink"><defs node-id="47"><clipPath id="mask-2_6" node-id="13"><path d="M 36.95 648.83 L 37.69 644.19 L 38.89 640.07 L 40.53 636.41 L 42.58 633.16 L 45.07 630.26 L 48.02 627.71 L 51.47 625.47 L 55.50 623.55 L 60.17 621.99 L 89.77 614.25 L 174.36 593.01 L 266.59 437.98 L 269.30 434.18 L 272.26 431.06 L 275.49 428.55 L 279.01 426.59 L 282.87 425.18 L 287.11 424.30 L 291.81 424.00 L 585.61 424.00 L 591.42 425.01 L 596.54 426.39 L 601.04 428.10 L 604.98 430.12 L 608.44 432.44 L 611.45 435.06 L 614.05 437.98 L 632.20 462.19 L 719.12 579.68 L 972.74 636.11 L 979.49 639.57 L 984.82 642.90 L 988.95 646.12 L 992.07 649.22 L 994.32 652.22 L 995.83 655.16 L 996.71 658.07 L 997.00 661.00 L 997.00 755.00 L 24.00 755.00 L 36.95 648.83 Z" fill="#000000" fill-rule="evenodd" node-id="52" stroke="none" target-height="331" target-width="973" target-x="24" target-y="424"/></clipPath><clipPath id="mask-2_5" node-id="13"><path d="M 36.95 648.83 L 37.69 644.19 L 38.89 640.07 L 40.53 636.41 L 42.58 633.16 L 45.07 630.26 L 48.02 627.71 L 51.47 625.47 L 55.50 623.55 L 60.17 621.99 L 89.77 614.25 L 174.36 593.01 L 266.59 437.98 L 269.30 434.18 L 272.26 431.06 L 275.49 428.55 L 279.01 426.59 L 282.87 425.18 L 287.11 424.30 L 291.81 424.00 L 585.61 424.00 L 591.42 425.01 L 596.54 426.39 L 601.04 428.10 L 604.98 430.12 L 608.44 432.44 L 611.45 435.06 L 614.05 437.98 L 632.20 462.19 L 719.12 579.68 L 972.74 636.11 L 979.49 639.57 L 984.82 642.90 L 988.95 646.12 L 992.07 649.22 L 994.32 652.22 L 995.83 655.16 L 996.71 658.07 L 997.00 661.00 L 997.00 755.00 L 24.00 755.00 L 36.95 648.83 Z" fill="#000000" fill-rule="evenodd" node-id="52" stroke="none" target-height="331" target-width="973" target-x="24" target-y="424"/></clipPath><clipPath id="mask-2_4" node-id="13"><path d="M 36.95 648.83 L 37.69 644.19 L 38.89 640.07 L 40.53 636.41 L 42.58 633.16 L 45.07 630.26 L 48.02 627.71 L 51.47 625.47 L 55.50 623.55 L 60.17 621.99 L 89.77 614.25 L 174.36 593.01 L 266.59 437.98 L 269.30 434.18 L 272.26 431.06 L 275.49 428.55 L 279.01 426.59 L 282.87 425.18 L 287.11 424.30 L 291.81 424.00 L 585.61 424.00 L 591.42 425.01 L 596.54 426.39 L 601.04 428.10 L 604.98 430.12 L 608.44 432.44 L 611.45 435.06 L 614.05 437.98 L 632.20 462.19 L 719.12 579.68 L 972.74 636.11 L 979.49 639.57 L 984.82 642.90 L 988.95 646.12 L 992.07 649.22 L 994.32 652.22 L 995.83 655.16 L 996.71 658.07 L 997.00 661.00 L 997.00 755.00 L 24.00 755.00 L 36.95 648.83 Z" fill="#000000" fill-rule="evenodd" node-id="52" stroke="none" target-height="331" target-width="973" target-x="24" target-y="424"/></clipPath><clipPath id="mask-2" node-id="13"><path d="M 12.95 224.83 C 14.38 210.81 22.12 201.86 36.17 197.99 C 50.22 194.11 88.28 184.45 150.36 169.01 L 242.59 13.98 C 248.36 4.66 256.77 0.00 267.81 0.00 C 278.86 0.00 376.79 0.00 561.61 0.00 C 574.64 1.71 584.12 6.37 590.05 13.98 C 595.98 21.59 631.00 68.83 695.12 155.68 L 948.74 212.11 C 964.91 219.66 973.00 227.96 973.00 237.00 C 973.00 246.05 973.00 277.38 973.00 331.00 L 0.00 331.00 L 12.95 224.83 Z" fill="#000000" fill-rule="evenodd" node-id="52" stroke="none" target-height="331" target-width="973" target-x="0" target-y="0"/></clipPath><clipPath id="mask-4_4" node-id="20"><path d="M 292.07 459.00 L 239.00 587.00 L 459.00 587.00 L 433.97 459.00 Z" fill="#000000" fill-rule="evenodd" node-id="59" stroke="none" target-height="128" target-width="220" target-x="239" target-y="459"/></clipPath><clipPath id="mask-4_3" node-id="20"><path d="M 292.07 459.00 L 239.00 587.00 L 459.00 587.00 L 433.97 459.00 Z" fill="#000000" fill-rule="evenodd" node-id="59" stroke="none" target-height="128" target-width="220" target-x="239" target-y="459"/></clipPath><clipPath id="mask-4" node-id="20"><path d="M 53.07 0.00 L -0.00 128.00 L 220.00 128.00 L 194.97 0.00 Z" fill="#000000" fill-rule="evenodd" node-id="59" stroke="none" target-height="128" target-width="220" target-x="-0" target-y="0"/></clipPath><clipPath id="mask-6_4" node-id="26"><path d="M 452.00 459.00 L 477.67 587.00 L 699.00 587.00 L 604.85 459.00 Z" fill="#000000" fill-rule="evenodd" node-id="66" stroke="none" target-height="128" target-width="247" target-x="452" target-y="459"/></clipPath><clipPath id="mask-6_3" node-id="26"><path d="M 452.00 459.00 L 477.67 587.00 L 699.00 587.00 L 604.85 459.00 Z" fill="#000000" fill-rule="evenodd" node-id="66" stroke="none" target-height="128" target-width="247" target-x="452" target-y="459"/></clipPath><clipPath id="mask-6" node-id="26"><path d="M 0.00 0.00 L 25.67 128.00 L 247.00 128.00 L 152.85 0.00 Z" fill="#000000" fill-rule="evenodd" node-id="66" stroke="none" target-height="128" target-width="247" target-x="0" target-y="0"/></clipPath></defs><g node-id="126"><path d="M 20.62 875.03 L 1044.00 875.03 L 1045.00 904.53 C 984.69 917.99 903.35 924.73 800.98 924.73 C 798.88 953.91 760.86 955.02 696.39 953.36 C 661.82 955.95 655.32 959.72 644.92 970.42 C 634.51 981.11 586.84 1006.46 511.81 970.42 C 488.94 960.48 473.06 953.62 439.55 986.34 C 406.04 1019.06 376.17 988.05 369.09 979.23 C 362.00 970.42 364.18 952.53 305.58 946.84 C 272.85 943.75 261.19 934.22 270.61 918.25 C 67.67 909.05 -21.13 894.64 4.22 875.02 C 9.56 874.99 15.02 874.99 20.62 875.03 Z" fill="#8ecec5" fill-opacity="0.4" fill-rule="nonzero" group-id="1" id="路径-16" node-id="9" stroke="none" target-height="144.07068" target-width="1066.1287" target-x="-21.128668" target-y="874.9905"/></g><g node-id="127"><path d="M 6.44 620.95 C -2.08 583.64 -57.58 340.66 99.33 307.25 C 256.24 273.84 348.94 312.75 417.89 244.72 C 486.83 176.70 504.03 187.86 560.66 192.36 C 617.29 196.86 682.92 147.76 704.97 133.01 C 727.03 118.26 926.15 23.36 977.06 307.25 C 985.10 429.99 991.79 563.15 935.46 613.58 C 879.13 664.02 936.49 709.31 977.06 714.35 C 1017.63 719.38 958.09 805.56 864.39 843.19 C 802.09 871.55 399.10 952.86 157.77 869.28 C 41.24 818.64 14.97 658.26 6.44 620.95 Z" fill="#8ecec5" fill-opacity="0.08" fill-rule="nonzero" group-id="2" id="路径-58" node-id="10" stroke="none" target-height="929.503" target-width="1075.2069" target-x="-57.58124" target-y="23.356209"/></g><g node-id="128"><g node-id="129"><g node-id="134"><path d="M 36.95 648.83 L 37.69 644.19 L 38.89 640.07 L 40.53 636.41 L 42.58 633.16 L 45.07 630.26 L 48.02 627.71 L 51.47 625.47 L 55.50 623.55 L 60.17 621.99 L 89.77 614.25 L 174.36 593.01 L 266.59 437.98 L 269.30 434.18 L 272.26 431.06 L 275.49 428.55 L 279.01 426.59 L 282.87 425.18 L 287.11 424.30 L 291.81 424.00 L 585.61 424.00 L 591.42 425.01 L 596.54 426.39 L 601.04 428.10 L 604.98 430.12 L 608.44 432.44 L 611.45 435.06 L 614.05 437.98 L 632.20 462.19 L 719.12 579.68 L 972.74 636.11 L 979.49 639.57 L 984.82 642.90 L 988.95 646.12 L 992.07 649.22 L 994.32 652.22 L 995.83 655.16 L 996.71 658.07 L 997.00 661.00 L 997.00 755.00 L 24.00 755.00 L 36.95 648.83 Z" fill="#ffffff" fill-rule="evenodd" group-id="3,4,9" node-id="83" stroke="none" target-height="331" target-width="973" target-x="24" target-y="424"/></g><g node-id="135"><g clip-path="url(#mask-2_4)" group-id="3,4,10" node-id="86"><path d="M -153.00 462.00 L -147.07 472.43 L -140.51 482.78 L -133.31 493.06 L -125.45 503.27 L -116.89 513.43 L -107.61 523.53 L -97.58 533.59 L -86.76 543.60 L -75.12 553.57 L -62.63 563.49 L -49.24 573.37 L -34.92 583.21 L -19.61 592.99 L -3.29 602.72 L 14.10 612.40 L 32.60 622.01 L 52.27 631.55 L 73.15 641.01 L 95.29 650.39 L 118.75 659.67 L 143.58 668.85 L 169.84 677.91 L 197.58 686.85 L 226.86 695.65 L 257.74 704.29 L 290.28 712.77 L 324.54 721.08 L 360.59 729.19 L 398.48 737.10 L 438.29 744.79 L 480.08 752.24 L 523.91 759.43 L 569.86 766.36 L 618.00 773.00 L 549.19 772.72 L 335.27 772.60 L -153.00 773.00 L -153.00 462.00 Z" fill="#d6dbdb" fill-rule="evenodd" group-id="3,4,10" id="路径-91" node-id="16" stroke="none" target-height="311" target-width="771" target-x="-153" target-y="462"/></g></g><g node-id="136"><g clip-path="url(#mask-2_5)" group-id="3,4,11" node-id="90"><path d="M 964.00 655.00 L 1001.00 655.00 L 1001.00 702.00 L 964.00 702.00 Z" fill="#e85f5b" fill-rule="evenodd" group-id="3,4,11" node-id="92" stroke="none" target-height="47" target-width="37" target-x="964" target-y="655"/></g></g><g clip-path="url(#mask-2_6)" group-id="3,4,12" node-id="95"><path d="M 24.00 655.00 L 62.00 655.00 L 62.00 702.00 L 24.00 702.00 Z" fill="#e85f5b" fill-rule="evenodd" group-id="3,4,12" node-id="97" stroke="none" target-height="47" target-width="38" target-x="24" target-y="655"/></g></g><g node-id="130"><g node-id="138"><path d="M 292.07 459.00 L 239.00 587.00 L 459.00 587.00 L 433.97 459.00 Z" fill="#8ecec5" fill-rule="nonzero" group-id="3,5,13" node-id="103" stroke="none" target-height="128" target-width="220" target-x="239" target-y="459"/></g><g node-id="139"><g clip-path="url(#mask-4_3)" group-id="3,5,14" node-id="106"><path d="M 378.04 426.00 L 242.00 597.00 L 296.44 597.00 L 432.00 426.00 Z" fill="#c5f2eb" fill-opacity="0.4" fill-rule="nonzero" group-id="3,5,14" id="路径-86" node-id="23" stroke="none" target-height="171" target-width="190" target-x="242" target-y="426"/></g></g><g clip-path="url(#mask-4_4)" group-id="3,5,15" node-id="110"><path d="M 441.81 426.00 L 312.00 597.00 L 336.44 597.00 L 465.00 426.00 Z" fill="#c5f2eb" fill-opacity="0.4" fill-rule="nonzero" group-id="3,5,15" id="路径-89" node-id="24" stroke="none" target-height="171" target-width="153" target-x="312" target-y="426"/></g></g><g node-id="131"><g node-id="141"><path d="M 452.00 459.00 L 477.67 587.00 L 699.00 587.00 L 604.85 459.00 Z" fill="#8ecec5" fill-rule="nonzero" group-id="3,6,16" node-id="117" stroke="none" target-height="128" target-width="247" target-x="452" target-y="459"/></g><g node-id="142"><g clip-path="url(#mask-6_3)" group-id="3,6,17" node-id="120"><path d="M 575.04 426.00 L 439.00 597.00 L 493.44 597.00 L 629.00 426.00 Z" fill="#c5f2eb" fill-opacity="0.4" fill-rule="nonzero" group-id="3,6,17" id="路径-86" node-id="29" stroke="none" target-height="171" target-width="190" target-x="439" target-y="426"/></g></g><g clip-path="url(#mask-6_4)" group-id="3,6,18" node-id="124"><path d="M 643.21 426.00 L 510.00 597.00 L 535.08 597.00 L 667.00 426.00 Z" fill="#c5f2eb" fill-opacity="0.4" fill-rule="nonzero" group-id="3,6,18" id="路径-89" node-id="30" stroke="none" target-height="171" target-width="157" target-x="510" target-y="426"/></g></g><path d="M 244.22 585.00 L 245.00 695.95 L 238.78 696.00 L 238.00 585.05 Z" fill="#a4dcd4" fill-rule="nonzero" group-id="3" id="路径-152" node-id="31" stroke="none" target-height="111" target-width="7" target-x="238" target-y="585"/><path d="M 482.22 585.00 L 483.00 695.95 L 476.78 696.00 L 476.00 585.05 Z" fill="#a4dcd4" fill-rule="nonzero" group-id="3" id="路径-152" node-id="32" stroke="none" target-height="111" target-width="7" target-x="476" target-y="585"/><path d="M 289.69 598.00 L 290.99 598.28 L 292.03 599.03 L 292.73 600.12 L 293.00 601.50 L 292.76 602.82 L 292.11 603.89 L 291.14 604.65 L 289.94 604.99 L 289.69 605.00 L 253.31 605.00 L 252.01 604.72 L 250.97 603.97 L 250.27 602.88 L 250.00 601.50 L 250.24 600.18 L 250.89 599.11 L 251.86 598.35 L 253.06 598.01 L 253.31 598.00 L 289.69 598.00 Z" fill="#a4dcd4" fill-rule="nonzero" group-id="3" id="路径-154" node-id="33" stroke="none" target-height="7" target-width="43" target-x="250" target-y="598"/><path d="M 536.69 598.00 L 537.99 598.28 L 539.03 599.03 L 539.73 600.12 L 540.00 601.50 L 539.76 602.82 L 539.11 603.89 L 538.14 604.65 L 536.94 604.99 L 536.69 605.00 L 500.31 605.00 L 499.01 604.72 L 497.97 603.97 L 497.27 602.88 L 497.00 601.50 L 497.24 600.18 L 497.89 599.11 L 498.86 598.35 L 500.06 598.01 L 500.31 598.00 L 536.69 598.00 Z" fill="#a4dcd4" fill-rule="nonzero" group-id="3" id="路径-154" node-id="34" stroke="none" target-height="7" target-width="43" target-x="497" target-y="598"/><path d="M 12.00 683.00 L 1012.00 683.00 L 1012.00 715.76 L 998.34 773.00 L 25.66 773.00 L 12.00 721.32 Z" fill="#184657" fill-rule="nonzero" group-id="3" id="矩形" node-id="35" stroke="none" target-height="90" target-width="1000" target-x="12" target-y="683"/><path d="M 213.50 662.00 L 221.28 662.25 L 228.85 662.93 L 236.23 664.04 L 243.44 665.57 L 250.49 667.52 L 257.46 669.90 L 264.18 672.63 L 270.67 675.71 L 276.94 679.16 L 282.99 682.96 L 290.25 688.20 L 297.04 693.88 L 303.39 700.03 L 309.30 706.64 L 313.69 712.23 L 317.71 718.04 L 321.39 724.07 L 324.72 730.35 L 327.71 736.88 L 330.29 743.54 L 332.46 750.37 L 334.22 757.38 L 335.57 764.58 L 336.50 772.00 L 90.50 772.00 L 91.43 764.58 L 92.78 757.38 L 94.54 750.37 L 96.71 743.54 L 99.29 736.88 L 102.28 730.35 L 105.61 724.07 L 109.29 718.04 L 113.31 712.23 L 117.70 706.64 L 123.61 700.03 L 129.96 693.88 L 136.75 688.20 L 144.01 682.96 L 150.06 679.16 L 156.33 675.71 L 162.82 672.63 L 169.54 669.90 L 176.51 667.52 L 183.56 665.57 L 190.77 664.04 L 198.15 662.93 L 205.72 662.25 L 213.50 662.00 Z" fill="#2c5c6e" fill-rule="evenodd" group-id="3,7" id="形状结合" node-id="37" stroke="none" target-height="109.99841" target-width="245.9928" target-x="90.50361" target-y="662"/><path d="M 305.00 783.50 L 304.67 791.10 L 303.77 798.43 L 302.31 805.53 L 300.28 812.42 L 297.71 819.16 L 294.66 825.58 L 291.15 831.70 L 287.15 837.54 L 282.72 843.06 L 277.91 848.20 L 272.72 852.95 L 267.13 857.35 L 261.23 861.29 L 255.04 864.77 L 248.55 867.78 L 241.74 870.34 L 234.78 872.34 L 227.60 873.79 L 220.18 874.68 L 212.50 875.00 L 204.82 874.68 L 197.40 873.79 L 190.22 872.34 L 183.26 870.34 L 176.45 867.78 L 169.96 864.77 L 163.77 861.29 L 157.87 857.35 L 152.28 852.95 L 147.09 848.20 L 142.28 843.06 L 137.85 837.54 L 133.85 831.70 L 130.34 825.58 L 127.29 819.16 L 124.72 812.42 L 122.69 805.53 L 121.23 798.43 L 120.33 791.10 L 120.00 783.50 L 120.33 775.90 L 121.23 768.57 L 122.69 761.47 L 124.72 754.58 L 127.29 747.84 L 130.34 741.42 L 133.85 735.30 L 137.85 729.46 L 142.28 723.94 L 147.09 718.80 L 152.28 714.05 L 157.87 709.65 L 163.77 705.71 L 169.96 702.23 L 176.45 699.22 L 183.26 696.66 L 190.22 694.66 L 197.40 693.21 L 204.82 692.32 L 212.50 692.00 L 220.18 692.32 L 227.60 693.21 L 234.78 694.66 L 241.74 696.66 L 248.55 699.22 L 255.04 702.23 L 261.23 705.71 L 267.13 709.65 L 272.72 714.05 L 277.91 718.80 L 282.72 723.94 L 287.15 729.46 L 291.15 735.30 L 294.66 741.42 L 297.71 747.84 L 300.28 754.58 L 302.31 761.47 L 303.77 768.57 L 304.67 775.90 L 305.00 783.50 Z" fill="#0d232b" fill-rule="evenodd" group-id="3,7" id="椭圆形" node-id="38" stroke="none" target-height="183" target-width="185" target-x="120" target-y="692"/><path d="M 262.00 782.50 L 261.73 787.43 L 261.00 792.14 L 259.82 796.65 L 258.19 800.99 L 256.13 805.17 L 253.71 809.06 L 250.94 812.70 L 247.79 816.09 L 244.34 819.16 L 240.64 821.87 L 236.66 824.24 L 232.38 826.27 L 227.95 827.86 L 223.35 829.02 L 218.54 829.74 L 213.50 830.00 L 208.46 829.74 L 203.65 829.02 L 199.05 827.86 L 194.62 826.27 L 190.34 824.24 L 186.36 821.87 L 182.66 819.16 L 179.21 816.09 L 176.06 812.70 L 173.29 809.06 L 170.87 805.17 L 168.81 800.99 L 167.18 796.65 L 166.00 792.14 L 165.27 787.43 L 165.00 782.50 L 165.27 777.57 L 166.00 772.86 L 167.18 768.35 L 168.81 764.01 L 170.87 759.83 L 173.29 755.94 L 176.06 752.30 L 179.21 748.91 L 182.66 745.84 L 186.36 743.13 L 190.34 740.76 L 194.62 738.73 L 199.05 737.14 L 203.65 735.98 L 208.46 735.26 L 213.50 735.00 L 218.54 735.26 L 223.35 735.98 L 227.95 737.14 L 232.38 738.73 L 236.66 740.76 L 240.64 743.13 L 244.34 745.84 L 247.79 748.91 L 250.94 752.30 L 253.71 755.94 L 256.13 759.83 L 258.19 764.01 L 259.82 768.35 L 261.00 772.86 L 261.73 777.57 L 262.00 782.50 Z" fill="#ffffff" fill-rule="evenodd" group-id="3,7" id="椭圆形" node-id="39" stroke="none" target-height="95" target-width="97" target-x="165" target-y="735"/><path d="M 773.50 662.00 L 781.28 662.25 L 788.85 662.93 L 796.23 664.04 L 803.44 665.57 L 810.49 667.52 L 817.46 669.90 L 824.18 672.63 L 830.67 675.71 L 836.94 679.16 L 842.99 682.96 L 850.25 688.20 L 857.04 693.88 L 863.39 700.03 L 869.30 706.64 L 873.69 712.23 L 877.71 718.04 L 881.39 724.07 L 884.72 730.35 L 887.71 736.88 L 890.29 743.54 L 892.46 750.37 L 894.22 757.38 L 895.57 764.58 L 896.50 772.00 L 650.50 772.00 L 651.43 764.58 L 652.78 757.38 L 654.54 750.37 L 656.71 743.54 L 659.29 736.88 L 662.28 730.35 L 665.61 724.07 L 669.29 718.04 L 673.31 712.23 L 677.70 706.64 L 683.61 700.03 L 689.96 693.88 L 696.75 688.20 L 704.01 682.96 L 710.06 679.16 L 716.33 675.71 L 722.82 672.63 L 729.54 669.90 L 736.51 667.52 L 743.56 665.57 L 750.77 664.04 L 758.15 662.93 L 765.72 662.25 L 773.50 662.00 Z" fill="#2c5c6e" fill-rule="evenodd" group-id="3,8" id="形状结合" node-id="41" stroke="none" target-height="109.99841" target-width="245.9928" target-x="650.5036" target-y="662"/><path d="M 865.00 783.50 L 864.67 791.10 L 863.77 798.43 L 862.31 805.53 L 860.28 812.42 L 857.71 819.16 L 854.66 825.58 L 851.15 831.70 L 847.15 837.54 L 842.72 843.06 L 837.91 848.20 L 832.72 852.95 L 827.13 857.35 L 821.23 861.29 L 815.04 864.77 L 808.55 867.78 L 801.74 870.34 L 794.78 872.34 L 787.60 873.79 L 780.18 874.68 L 772.50 875.00 L 764.82 874.68 L 757.40 873.79 L 750.22 872.34 L 743.26 870.34 L 736.45 867.78 L 729.96 864.77 L 723.77 861.29 L 717.87 857.35 L 712.28 852.95 L 707.09 848.20 L 702.28 843.06 L 697.85 837.54 L 693.85 831.70 L 690.34 825.58 L 687.29 819.16 L 684.72 812.42 L 682.69 805.53 L 681.23 798.43 L 680.33 791.10 L 680.00 783.50 L 680.33 775.90 L 681.23 768.57 L 682.69 761.47 L 684.72 754.58 L 687.29 747.84 L 690.34 741.42 L 693.85 735.30 L 697.85 729.46 L 702.28 723.94 L 707.09 718.80 L 712.28 714.05 L 717.87 709.65 L 723.77 705.71 L 729.96 702.23 L 736.45 699.22 L 743.26 696.66 L 750.22 694.66 L 757.40 693.21 L 764.82 692.32 L 772.50 692.00 L 780.18 692.32 L 787.60 693.21 L 794.78 694.66 L 801.74 696.66 L 808.55 699.22 L 815.04 702.23 L 821.23 705.71 L 827.13 709.65 L 832.72 714.05 L 837.91 718.80 L 842.72 723.94 L 847.15 729.46 L 851.15 735.30 L 854.66 741.42 L 857.71 747.84 L 860.28 754.58 L 862.31 761.47 L 863.77 768.57 L 864.67 775.90 L 865.00 783.50 Z" fill="#0d232b" fill-rule="evenodd" group-id="3,8" id="椭圆形" node-id="42" stroke="none" target-height="183" target-width="185" target-x="680" target-y="692"/><path d="M 822.00 782.50 L 821.73 787.43 L 821.00 792.14 L 819.82 796.65 L 818.19 800.99 L 816.13 805.17 L 813.71 809.06 L 810.94 812.70 L 807.79 816.09 L 804.34 819.16 L 800.64 821.87 L 796.66 824.24 L 792.38 826.27 L 787.95 827.86 L 783.35 829.02 L 778.54 829.74 L 773.50 830.00 L 768.46 829.74 L 763.65 829.02 L 759.05 827.86 L 754.62 826.27 L 750.34 824.24 L 746.36 821.87 L 742.66 819.16 L 739.21 816.09 L 736.06 812.70 L 733.29 809.06 L 730.87 805.17 L 728.81 800.99 L 727.18 796.65 L 726.00 792.14 L 725.27 787.43 L 725.00 782.50 L 725.27 777.57 L 726.00 772.86 L 727.18 768.35 L 728.81 764.01 L 730.87 759.83 L 733.29 755.94 L 736.06 752.30 L 739.21 748.91 L 742.66 745.84 L 746.36 743.13 L 750.34 740.76 L 754.62 738.73 L 759.05 737.14 L 763.65 735.98 L 768.46 735.26 L 773.50 735.00 L 778.54 735.26 L 783.35 735.98 L 787.95 737.14 L 792.38 738.73 L 796.66 740.76 L 800.64 743.13 L 804.34 745.84 L 807.79 748.91 L 810.94 752.30 L 813.71 755.94 L 816.13 759.83 L 818.19 764.01 L 819.82 768.35 L 821.00 772.86 L 821.73 777.57 L 822.00 782.50 Z" fill="#ffffff" fill-rule="evenodd" group-id="3,8" id="椭圆形" node-id="43" stroke="none" target-height="95" target-width="97" target-x="725" target-y="735"/><path d="M 533.00 395.00 L 533.00 423.00 L 430.00 423.00 L 430.00 395.00 L 533.00 395.00 Z M 529.00 398.00 L 433.00 398.00 L 433.00 419.00 L 529.00 419.00 L 529.00 398.00 Z" fill="#483029" fill-rule="nonzero" group-id="3" id="矩形" node-id="44" stroke="none" target-height="28" target-width="103" target-x="430" target-y="395"/><path d="M 426.00 367.00 L 536.00 367.00 L 538.92 367.27 L 541.60 368.00 L 544.08 369.18 L 546.32 370.77 L 548.23 372.68 L 549.82 374.92 L 551.00 377.40 L 551.73 380.08 L 552.00 383.00 L 552.00 394.00 L 551.73 396.92 L 551.00 399.60 L 549.82 402.08 L 548.23 404.32 L 546.32 406.23 L 544.08 407.82 L 541.60 409.00 L 538.92 409.73 L 536.00 410.00 L 426.00 410.00 L 423.08 409.73 L 420.40 409.00 L 417.92 407.82 L 415.68 406.23 L 413.77 404.32 L 412.18 402.08 L 411.00 399.60 L 410.27 396.92 L 410.00 394.00 L 410.00 383.00 L 410.27 380.08 L 411.00 377.40 L 412.18 374.92 L 413.77 372.68 L 415.68 370.77 L 417.92 369.18 L 420.40 368.00 L 423.08 367.27 L 426.00 367.00 Z" fill="#e85f5b" fill-rule="evenodd" group-id="3" id="矩形" node-id="45" stroke="none" target-height="43" target-width="142" target-x="410" target-y="367"/></g></svg>