<svg t="1700140489777" class="icon" viewBox="0 0 1024 1024" version="1.1" xmlns="http://www.w3.org/2000/svg" p-id="2267" width="32" height="32"><path d="M908.75947268 478.83040365l-650.62529297-323.25029297c-4.27939453-2.20166016-9.33837891-3.49365234-14.69794922-3.4998047l-2.80195312 0-0.74970705 0.12480469-0.62490233 0-1.12587892 0.1248047-0.37529295-1e-8-1.50029298 0.50009766c-3.97529297 0.71103516-7.50058594 2.24208984-10.53544921 4.41386718l1.16015625-0.91406249c-4.55537109 2.40996094-8.30830078 5.7796875-11.09619142 9.86220702l5.09589845-5.73749999-1.125 1.125-0.37529298 0.24960938-0.87539062 0.87539062-0.37529296 0.50009765c-0.64511719 0.60820313-1.13818359 1.36845703-1.42119141 2.22539063l0.04658203-0.72685548-0.50009765 0.62490236-0.62490235 0.87539062-0.37529298 0.50009766-0.87539061 1.125-0.12480469 0.24960936c-0.78574219 1.08632812-1.35087891 2.38447266-1.603125 3.79160158l0.72773437-2.16738282c-2.18496094 3.37060547-3.63339844 7.40742187-4.02626954 11.75009766l0.52646486-3.62548829c-1.02744141 3.07529297-1.64091796 6.61904297-1.6866211 10.29902344l0.06152344 4.45166016 0.12392577 1.37460938 0 0.12392576c0.89912109 5.78671875 2.94257812 10.96435547 5.90009766 15.49160158l-0.14941405-0.74179688 192.25019531 303.00029297-193.87529298 305.99912109c-1.08544922 1.63828126-1.85273438 3.58242188-2.16474609 5.67509766l0.66533205-2.55058593-0.74970705 2.25-0.37529296 0.74970702-0.62490235 2.37480469-0.12480469 0.87539063-0.50009765 2.12519532 1e-8 0.62490234c-0.15996095 0.86660156-0.25224609 1.86591797-0.25576173 2.88632812l0.00527344 3.11396484c0 2.87490234 0.37529296 5.87460938 1.24980469 8.74951173l-1e-8 0.37529297c0.94746094 2.79228516 1.57236328 6.02050781 1.73935548 9.36914061l-0.73916016-6.24374999c1.19794922 3.62373047 3.0928711 6.73242188 5.54326172 9.30937499l-3.04277345-3.81005859c2.87050781 5.10292969 6.53291016 9.4078125 10.87294924 12.90498048l-8.62207032-9.40429689 1.00019531 1.37460939 1.99951172 2.49960936 0.24960936 0.12480468 1.37460939 1.50029298c0.37529296 0 0.50009766 0.12480469 0.74970703 0.37529298 1.69892578 1.64619141 3.76875 2.91884766 6.07236328 3.67734374l-3.94716798-1.80175781 0.87539064 0.62490234 0.50009765 0.37529298 0.74970703 0.24960936 2.00039062 1.2498047 0.1239258 0c0.93427734 0.73037109 2.08037109 1.23222656 3.33193357 1.40273437l-1.08105468-0.15292968c2.68857422 1.31835938 5.82451172 2.19111327 9.13623047 2.42666015-2.34140625-0.03339844-0.12919922 0.35507812 2.16914063 0.39375l-1.18125001 0.05361327 2.3748047 0.1248047 0.62490234 0 1.74990235-0.12480469 0.62490234-1e-8 2.00039062-0.12480468 1.00019531-0.12480469 1.87470704-0.37529297 0.87539062-0.12480468c0.74970703-0.24960937 1.24980469-0.50009766 1.87470703-0.50009766l0.62490234-0.24960938c1.01953125-0.16611328 1.92568359-0.55722655 2.6982422-1.12060546l-0.196875 0.24521484c4.57558594-2.27021484 9.89560547-3.88125 15.50566406-4.53955079l637.49443359-319.83574217c11.96191406-6.15761719 20.00302734-18.41923828 20.00302736-32.55908203 0-0.15380859-0.00087891-0.31025391-0.00263673-0.4640625 0.00439453-0.17050781 0.00615234-0.40166016 0.00615234-0.63281251 0-14.0493164-7.99189453-26.23095703-19.67783204-32.24882812z" fill="#409eff" p-id="2268"></path></svg>